<?xml version="1.0" standalone="no"?>
<!DOCTYPE svg PUBLIC "-//W3C//DTD SVG 20010904//EN"
 "http://www.w3.org/TR/2001/REC-SVG-20010904/DTD/svg10.dtd">
<svg version="1.0" xmlns="http://www.w3.org/2000/svg"
 width="382.000000pt" height="159.000000pt" viewBox="0 0 382.000000 159.000000"
 preserveAspectRatio="xMidYMid meet">

<g transform="translate(0.000000,159.000000) scale(0.100000,-0.100000)"
fill="#000000" stroke="none">
<path d="M0 795 l0 -795 1910 0 1910 0 0 795 0 795 -1910 0 -1910 0 0 -795z
m3800 0 l0 -775 -1890 0 -1890 0 0 775 0 775 1890 0 1890 0 0 -775z"/>
<path d="M350 795 c0 -270 3 -415 10 -415 7 0 10 145 10 415 0 270 -3 415 -10
415 -7 0 -10 -145 -10 -415z"/>
<path d="M440 795 l0 -415 200 2 c261 4 271 22 15 26 l-185 2 0 400 c0 349 -2
400 -15 400 -13 0 -15 -53 -15 -415z"/>
<path d="M2391 1078 c-70 -28 -149 -106 -187 -183 -26 -54 -29 -70 -29 -160 0
-88 3 -107 27 -158 85 -180 288 -260 458 -181 278 131 289 521 18 669 -46 25
-66 30 -143 32 -74 2 -100 -1 -144 -19z m263 -32 c101 -47 96 -32 96 -311 0
-280 5 -266 -96 -312 -106 -48 -222 -38 -312 27 l-42 30 2 257 3 257 40 27
c93 62 209 72 309 25z m-384 -312 c0 -237 -4 -248 -51 -141 -17 40 -23 71 -23
137 -1 76 3 92 31 153 18 37 34 67 37 67 4 0 6 -97 6 -216z m547 154 c25 -48
28 -63 28 -153 0 -89 -3 -106 -28 -157 -16 -32 -33 -58 -38 -58 -5 0 -9 88 -9
210 0 131 4 210 10 210 5 0 22 -24 37 -52z"/>
<path d="M970 735 c0 -230 4 -355 10 -355 6 0 10 125 10 355 0 230 -4 355 -10
355 -6 0 -10 -125 -10 -355z"/>
<path d="M1065 1078 c-3 -7 -4 -166 -3 -353 l3 -340 163 0 c211 0 221 19 12
23 l-150 3 0 164 0 164 123 3 c73 2 122 7 122 13 0 6 -49 11 -122 13 l-123 3
0 144 0 144 150 3 c208 4 202 22 -8 26 -125 2 -164 0 -167 -10z"/>
<path d="M1481 1073 c8 -10 76 -93 152 -185 l138 -168 -18 -25 c-10 -13 -22
-24 -28 -24 -5 0 -49 48 -97 107 -48 59 -103 125 -123 147 l-34 40 -1 -293 c0
-231 3 -293 13 -289 9 3 12 63 14 251 1 136 3 250 6 252 2 2 53 -54 112 -126
59 -71 109 -130 111 -130 1 0 58 67 127 150 69 82 127 146 131 143 3 -4 6
-127 6 -275 0 -172 4 -268 10 -268 6 0 10 104 10 293 l0 294 28 36 c15 20 30
36 35 37 4 0 7 -149 7 -331 0 -260 3 -330 13 -327 17 6 18 699 1 705 -6 2 -75
-73 -153 -166 -77 -93 -144 -172 -149 -175 -5 -3 -73 73 -153 169 -79 96 -150
175 -158 175 -11 0 -11 -3 0 -17z"/>
<path d="M2962 1081 c2 -6 93 -121 203 -256 110 -136 211 -262 225 -281 14
-18 28 -34 33 -34 4 0 7 131 7 291 0 228 -3 290 -12 286 -10 -3 -13 -64 -15
-252 -1 -136 -4 -249 -6 -251 -2 -3 -97 110 -211 251 -179 220 -238 285 -224
246z"/>
<path d="M2960 672 c0 -188 4 -292 10 -292 6 0 10 92 10 256 0 157 4 253 9
249 6 -3 101 -118 212 -255 111 -138 208 -250 216 -250 9 0 -2 20 -29 54 -132
165 -412 512 -420 521 -4 5 -8 -122 -8 -283z"/>
</g>
</svg>
