<svg id="level" style="fill: #555555;" width="32" viewBox="0 0 512 512" xmlns="http://www.w3.org/2000/svg">
    <g>
        <g>
            <path style="fill: none; stroke: #555555; stroke-width: 10px;" d="m466 392h-60c-8.284 0-15-6.716-15-15v-362c0-8.284 6.716-15 15-15h60c8.284 0 15 6.716 15 15v362c0 8.284-6.716 15-15 15z"/>
        </g>
        <g>
            <path d="m346 392h-60c-8.284 0-15-6.716-15-15v-300c0-8.284 6.716-15 15-15h60c8.284 0 15 6.716 15 15v300c0 8.284-6.716 15-15 15z"/>
        </g>
        <g>
            <path d="m226 392h-60c-8.284 0-15-6.716-15-15v-240c0-8.284 6.716-15 15-15h60c8.284 0 15 6.716 15 15v240c0 8.284-6.716 15-15 15z"/>
        </g>
        <g>
            <path d="m106 392h-60c-8.284 0-15-6.716-15-15v-180c0-8.284 6.716-15 15-15h60c8.284 0 15 6.716 15 15v180c0 8.284-6.716 15-15 15z"/>
        </g>
    </g>
</svg>